<svg xmlns="http://www.w3.org/2000/svg" xmlns:xlink="http://www.w3.org/1999/xlink" viewBox="0 0 715.21 341.74"><defs><style>.cls-1{fill:none;}.cls-2{isolation:isolate;}.cls-3{fill:#f6e730;}.cls-4{fill:url(#linear-gradient);}.cls-5{fill:url(#linear-gradient-2);}.cls-18,.cls-6,.cls-7{fill:#ae8d2d;}.cls-6{opacity:0.4;}.cls-8{fill:url(#linear-gradient-3);}.cls-9{opacity:0.7;}.cls-22,.cls-27,.cls-9{mix-blend-mode:multiply;}.cls-10{fill:url(#linear-gradient-4);}.cls-11,.cls-27{opacity:0.6;}.cls-12{fill:url(#linear-gradient-5);}.cls-13{fill:url(#linear-gradient-6);}.cls-14{fill:url(#linear-gradient-7);}.cls-15{fill:url(#linear-gradient-8);}.cls-16{fill:url(#linear-gradient-9);}.cls-17{fill:url(#linear-gradient-10);}.cls-18{opacity:0.3;}.cls-19{fill:url(#linear-gradient-11);}.cls-20{fill:url(#linear-gradient-12);}.cls-21,.cls-35{fill:#027cd4;}.cls-22{opacity:0.5;}.cls-23{clip-path:url(#clip-path);}.cls-24{clip-path:url(#clip-path-2);}.cls-25{fill:#b1b3b1;}.cls-26{fill:url(#linear-gradient-13);}.cls-27{fill:url(#linear-gradient-14);}.cls-28{fill:#d5b244;}.cls-29{clip-path:url(#clip-path-3);}.cls-30{fill:url(#linear-gradient-15);}.cls-31{clip-path:url(#clip-path-4);}.cls-32{fill:url(#linear-gradient-16);}.cls-33{clip-path:url(#clip-path-5);}.cls-34{fill:url(#linear-gradient-17);}.cls-35{fill-rule:evenodd;}</style><linearGradient id="linear-gradient" x1="300.78" y1="56.97" x2="78.9" y2="223.27" gradientUnits="userSpaceOnUse"><stop offset="0" stop-color="#ffe500"/><stop offset="0.32" stop-color="#fee100"/><stop offset="0.63" stop-color="#fbd500"/><stop offset="0.95" stop-color="#f7c100"/><stop offset="1" stop-color="#f6bd00"/></linearGradient><linearGradient id="linear-gradient-2" x1="147.72" y1="158.02" x2="153.9" y2="354.92" gradientUnits="userSpaceOnUse"><stop offset="0" stop-color="#ffe90f"/><stop offset="1" stop-color="#f9ba25"/></linearGradient><linearGradient id="linear-gradient-3" x1="81.59" y1="300.52" x2="195.69" y2="-6.68" xlink:href="#linear-gradient"/><linearGradient id="linear-gradient-4" x1="146.57" y1="-30.12" x2="146.57" y2="22.61" gradientUnits="userSpaceOnUse"><stop offset="0" stop-color="#f4a420"/><stop offset="1" stop-color="#fff"/></linearGradient><linearGradient id="linear-gradient-5" x1="141.07" y1="184.95" x2="297.39" y2="167.58" xlink:href="#linear-gradient"/><linearGradient id="linear-gradient-6" x1="124.89" y1="177.04" x2="130.41" y2="352.75" xlink:href="#linear-gradient-2"/><linearGradient id="linear-gradient-7" x1="63.68" y1="304.39" x2="167.4" y2="25.13" xlink:href="#linear-gradient"/><linearGradient id="linear-gradient-8" x1="123.68" y1="4.43" x2="123.68" y2="57.16" xlink:href="#linear-gradient-4"/><linearGradient id="linear-gradient-9" x1="240.78" y1="283.04" x2="-67.45" y2="100.72" xlink:href="#linear-gradient"/><linearGradient id="linear-gradient-10" x1="102.23" y1="194.99" x2="107.12" y2="350.7" xlink:href="#linear-gradient-2"/><linearGradient id="linear-gradient-11" x1="45.66" y1="308.05" x2="139.59" y2="55.16" xlink:href="#linear-gradient"/><linearGradient id="linear-gradient-12" x1="100.97" y1="37.04" x2="100.97" y2="89.78" xlink:href="#linear-gradient-4"/><clipPath id="clip-path"><rect class="cls-1" x="51.02" y="145.97" width="98.2" height="91.1"/></clipPath><clipPath id="clip-path-2"><rect class="cls-1" x="51.02" y="145.97" width="98.2" height="91.1"/></clipPath><linearGradient id="linear-gradient-13" x1="96.13" y1="340.29" x2="96.13" y2="232.67" gradientUnits="userSpaceOnUse"><stop offset="0" stop-color="#fcc905"/><stop offset="0.01" stop-color="#fcc905"/><stop offset="0.4" stop-color="#f4e632"/><stop offset="1" stop-color="#f4e632"/></linearGradient><linearGradient id="linear-gradient-14" x1="96.13" y1="351.04" x2="96.13" y2="262.94" xlink:href="#linear-gradient-4"/><clipPath id="clip-path-3"><path class="cls-1" d="M90.64,255.19a11.67,11.67,0,0,0-.86,16.18,11,11,0,0,0,15.74.9,11.68,11.68,0,0,0,.86-16.2,11,11,0,0,0-15.74-.88"/></clipPath><linearGradient id="linear-gradient-15" x1="-274.72" y1="-338.52" x2="-273.14" y2="-338.52" gradientTransform="matrix(15.66, 0, 0, -15.66, 4390.67, -5038.04)" gradientUnits="userSpaceOnUse"><stop offset="0" stop-color="#9f9d9a"/><stop offset="0.49" stop-color="#9f9d9a"/><stop offset="0.58" stop-color="#a2a09e"/><stop offset="0.66" stop-color="#adaba9"/><stop offset="0.74" stop-color="#bebdbb"/><stop offset="0.82" stop-color="#d7d6d5"/><stop offset="0.9" stop-color="#f6f6f6"/><stop offset="0.91" stop-color="#fff"/><stop offset="1" stop-color="#f7f6f7"/></linearGradient><clipPath id="clip-path-4"><path class="cls-1" d="M90.64,255.19a11.67,11.67,0,0,0-.86,16.18,11,11,0,0,0,15.74.9c4.6-4.24,3.88-10.47-.23-15.18-2.43-2.78-5.5-4.41-8.55-4.41a8.87,8.87,0,0,0-6.1,2.51"/></clipPath><linearGradient id="linear-gradient-16" x1="-278.18" y1="-342.52" x2="-276.6" y2="-342.52" gradientTransform="matrix(14.33, 0, 0, -14.33, 4073, -4643.57)" gradientUnits="userSpaceOnUse"><stop offset="0" stop-color="#9f9d9a"/><stop offset="0.29" stop-color="#a2a09e"/><stop offset="0.54" stop-color="#adaba8"/><stop offset="0.79" stop-color="#bfbcbb"/><stop offset="1" stop-color="#d5d2d1"/></linearGradient><clipPath id="clip-path-5"><path class="cls-1" d="M89.3,258.65c-2.31,2.1-2.64,8.35.92,12.44s9.68,4.45,12,2.34,1.25-7.12-2.3-11.21c-2.5-2.86-5.58-4.5-8-4.5a3.77,3.77,0,0,0-2.62.93"/></clipPath><linearGradient id="linear-gradient-17" x1="-305.06" y1="-369.78" x2="-303.48" y2="-369.78" gradientTransform="matrix(8.86, 0, 0, -8.86, 2791.82, -3010.11)" gradientUnits="userSpaceOnUse"><stop offset="0" stop-color="#fff"/><stop offset="0.31" stop-color="#fcfcfb"/><stop offset="0.59" stop-color="#f2f1f0"/><stop offset="0.86" stop-color="#e1dfde"/><stop offset="1" stop-color="#d5d2d1"/></linearGradient></defs><title>logo fk ads</title><g class="cls-2"><g id="Layer_1" data-name="Layer 1"><path class="cls-3" d="M233.41,338.25H68.87c-7.92,0-14.34-7-14.34-15.6v-307C54.53,7,61,0,68.87,0H230.62a23,23,0,0,1,9,1.61c4.9,2.11,7.85,13.76,7.85,14l.25,307c0,8.62-6.42,15.6-14.35,15.6"/><path class="cls-4" d="M233.41,338.25H68.87c-7.92,0-14.63-5.84-15.24-18.19l.9-304.45C54.53,7,61,0,68.87,0H230.62a22.59,22.59,0,0,1,8.24,1.7,15,15,0,0,1,8.67,13l.23,308c0,8.62-6.42,15.6-14.35,15.6"/><path class="cls-5" d="M242,12.77a10.23,10.23,0,0,0-8-1.65c-4.76.84-9.11,4.08-9.11,15.43V298.4c0,8.71-6,15.79-13.31,15.79H58.89a11.2,11.2,0,0,1-4.56-1c-.3-.13-.58-.27-.86-.42v5.08c0,8.19,6.28,14.82,14,14.82h161c7.76,0,14-6.63,14-14.82V16.12s0-.07,0-.11,0-.09,0-.13A8.89,8.89,0,0,0,242,12.77Z"/><path class="cls-6" d="M242.53,15.16a8.89,8.89,0,0,0-.56-3.11,9.78,9.78,0,0,0-2.09-1.13,8.74,8.74,0,0,1,.19,1.78.71.71,0,0,1,0,.14s0,.06,0,.1V314.72c0,8.18-6.28,14.82-14,14.82H65a13.45,13.45,0,0,1-8.38-3A13.73,13.73,0,0,0,67.5,332h161c7.76,0,14-6.63,14-14.82V15.4s0-.07,0-.11S242.53,15.2,242.53,15.16Z"/><path class="cls-7" d="M223.69,310.54c-2.23,3.18-8.91,4.41-16.36,3.59,0,0,3.3-8.71,3.3-8.87s12.6-6.64,14.18-7.46v-280c0-5.12-3.67-9.26-8.21-9.26H47.67V307c0,8.72,5.88,15.79,13.15,15.79H208.6c10.08,0,19.4-7.11,18.46-20.67C226.86,302.82,224,310.05,223.69,310.54Z"/><path class="cls-8" d="M58.42,0A12.82,12.82,0,0,0,45.6,12.83V298.38c0,6.82,3.64,12.63,8.73,14.83a11.29,11.29,0,0,0,4.57,1H211.55c7.36,0,13.31-7.08,13.31-15.8V26.53c0-11.34,4.36-14.58,9.12-15.43,8.39-1.49,13.56,5.79,13.56,14.51V14.74c-.31-6-2.4-11-8.57-13.43A23.8,23.8,0,0,0,230.42,0Z"/><g class="cls-9"><path class="cls-10" d="M239,1.31A23.8,23.8,0,0,0,230.42,0h-172A12.82,12.82,0,0,0,45.6,12.83V64.89c.55-.06,179.26,0,179.26,0V26.53c0-11.34,4.36-14.58,9.12-15.43,8.39-1.49,13.56,5.79,13.56,14.51V14.74C247.23,8.73,245.14,3.73,239,1.31Z"/></g><g class="cls-11"><rect class="cls-7" x="216.37" y="174.64" width="1.55" height="5.64"/><rect class="cls-7" x="216.37" y="118.24" width="1.55" height="5.64"/><rect class="cls-7" x="216.37" y="140.8" width="1.55" height="5.64"/><rect class="cls-7" x="216.37" y="129.52" width="1.55" height="5.64"/><rect class="cls-7" x="216.37" y="152.08" width="1.55" height="5.64"/><path class="cls-7" d="M212.8,302.54l1.1,1a12.63,12.63,0,0,0,3.34-5.08l-1.48-.43A11.13,11.13,0,0,1,212.8,302.54Z"/><rect class="cls-7" x="216.37" y="287.03" width="1.55" height="6.96"/><rect class="cls-7" x="216.37" y="264.47" width="1.55" height="5.64"/><rect class="cls-7" x="216.37" y="185.92" width="1.55" height="72.91"/><rect class="cls-7" x="216.37" y="275.75" width="1.55" height="5.64"/><rect class="cls-7" x="216.37" y="163.36" width="1.55" height="5.64"/><rect class="cls-7" x="216.37" y="39.28" width="1.55" height="5.64"/><rect class="cls-7" x="216.37" y="50.55" width="1.55" height="5.64"/><rect class="cls-7" x="216.37" y="106.96" width="1.55" height="5.64"/><path class="cls-7" d="M223.45,9.33a15.49,15.49,0,0,0-2.25,2.19l1.24.86a14,14,0,0,1,2-2c.73-.57,1.52-1.13,2.35-1.67l-.9-1.15C225,8.14,224.21,8.73,223.45,9.33Z"/><path class="cls-7" d="M216.6,22.25l1.53.21a25.06,25.06,0,0,1,1.49-5.32l-1.46-.49A26.63,26.63,0,0,0,216.6,22.25Z"/><rect class="cls-7" x="216.37" y="28" width="1.55" height="5.64"/><rect class="cls-7" x="216.37" y="61.84" width="1.55" height="5.64"/><rect class="cls-7" x="216.37" y="84.39" width="1.55" height="5.64"/><rect class="cls-7" x="216.37" y="95.68" width="1.55" height="5.64"/><rect class="cls-7" x="216.37" y="73.12" width="1.55" height="5.64"/><path class="cls-7" d="M234.56,4.23h-2c-.35.14-.77.26-1.21.45L232,6c1.64-.71,2.76-1.07,2.77-1.07Z"/><rect class="cls-7" x="201.92" y="305.57" width="5.07" height="1.41"/><rect class="cls-7" x="53.04" y="116.62" width="1.55" height="5.74"/><rect class="cls-7" x="53.04" y="105.14" width="1.55" height="5.74"/><rect class="cls-7" x="53.04" y="93.66" width="1.55" height="5.74"/><rect class="cls-7" x="53.04" y="128.1" width="1.55" height="5.74"/><rect class="cls-7" x="53.04" y="162.53" width="1.55" height="5.74"/><rect class="cls-7" x="53.04" y="139.57" width="1.55" height="5.74"/><rect class="cls-7" x="53.04" y="151.05" width="1.55" height="5.74"/><rect class="cls-7" x="53.04" y="24.79" width="1.55" height="5.74"/><rect class="cls-7" x="53.04" y="174.01" width="1.55" height="5.74"/><rect class="cls-7" x="53.04" y="13.31" width="1.55" height="5.74"/><rect class="cls-7" x="53.04" y="36.27" width="1.55" height="5.74"/><rect class="cls-7" x="53.04" y="59.23" width="1.55" height="5.74"/><rect class="cls-7" x="53.04" y="47.75" width="1.55" height="5.74"/><rect class="cls-7" x="53.04" y="70.7" width="1.55" height="5.74"/><rect class="cls-7" x="53.04" y="82.18" width="1.55" height="5.74"/><rect class="cls-7" x="76.02" y="305.57" width="6.29" height="1.41"/><rect class="cls-7" x="126.38" y="305.57" width="6.3" height="1.41"/><rect class="cls-7" x="138.97" y="305.57" width="6.3" height="1.41"/><rect class="cls-7" x="113.79" y="305.57" width="6.29" height="1.41"/><rect class="cls-7" x="176.74" y="305.57" width="6.29" height="1.41"/><rect class="cls-7" x="151.56" y="305.57" width="6.29" height="1.41"/><rect class="cls-7" x="101.2" y="305.57" width="6.29" height="1.41"/><rect class="cls-7" x="164.15" y="305.57" width="6.3" height="1.41"/><path class="cls-7" d="M63.62,305.34l-.34,1.38a13.84,13.84,0,0,0,2.65.26h3.8v-1.41h-3.8A11.91,11.91,0,0,1,63.62,305.34Z"/><rect class="cls-7" x="53.04" y="275.71" width="1.55" height="5.74"/><rect class="cls-7" x="53.04" y="264.23" width="1.55" height="5.74"/><rect class="cls-7" x="53.04" y="287.19" width="1.55" height="5.74"/><rect class="cls-7" x="53.04" y="185.48" width="1.55" height="73.01"/><rect class="cls-7" x="189.33" y="305.57" width="6.29" height="1.41"/><path class="cls-7" d="M53.85,298.82a12.44,12.44,0,0,0,3.59,5.05l1.06-1a11.13,11.13,0,0,1-3.19-4.49Z"/><rect class="cls-7" x="88.61" y="305.57" width="6.29" height="1.41"/><rect class="cls-7" x="53.04" y="4.73" width="1.55" height="2.83"/></g><path class="cls-7" d="M242,12.77a10.23,10.23,0,0,0-8-1.65c-4.76.84-9.12,4.08-9.12,15.43V298.4c0,8.71-6,15.79-13.31,15.79l-4.13,0c1.24.14,4.14.22,5.37.3a26.5,26.5,0,0,0,7.5-1.07s0,0,0,0a12,12,0,0,0,3.26-2c2.2-2.81,3.57-3.38,3.57-7.51v-275c0-11.34,4.35-14.58,9.11-15.43a10.69,10.69,0,0,1,6.05.58A12.41,12.41,0,0,0,242,12.77Z"/><path class="cls-3" d="M210.53,338.2H46c-7.92,0-14.34-7-14.34-15.6V50.16c0-8.62,6.42-15.61,14.34-15.61H207.74a23,23,0,0,1,9,1.61c4.9,2.12,7.85,13.77,7.85,14l.24,272.44c0,8.62-6.41,15.6-14.34,15.6"/><path class="cls-12" d="M210.53,338.2H46c-7.92,0-14.64-5.84-15.24-18.19l.9-269.85c0-8.62,6.42-15.61,14.34-15.61H207.74A22.42,22.42,0,0,1,216,36.26a15,15,0,0,1,8.67,13l.22,273.37c0,8.62-6.41,15.6-14.34,15.6"/><path class="cls-13" d="M219.09,47.32a10.27,10.27,0,0,0-8-1.65c-4.76.85-9.11,4.08-9.11,15.43V298.35c0,8.71-6,15.79-13.32,15.79H36a11.29,11.29,0,0,1-4.57-1c-.29-.12-.57-.26-.85-.41v5.08c0,8.19,6.28,14.82,14,14.82h161c7.75,0,14-6.63,14-14.82V50.67s0-.07,0-.11,0-.09,0-.13A9.17,9.17,0,0,0,219.09,47.32Z"/><path class="cls-6" d="M219.65,49.71a9.07,9.07,0,0,0-.56-3.1A9.86,9.86,0,0,0,217,45.47a8.74,8.74,0,0,1,.19,1.78s0,.09,0,.14,0,.06,0,.1V314.66c0,8.19-6.28,14.82-14,14.82h-161a13.47,13.47,0,0,1-8.39-3,13.76,13.76,0,0,0,10.85,5.41h161c7.75,0,14-6.63,14-14.82V50s0-.07,0-.1S219.65,49.75,219.65,49.71Z"/><path class="cls-7" d="M200.81,310.48c-2.23,3.19-8.92,4.42-16.36,3.6,0,0,3.29-8.71,3.29-8.88s12.6-6.64,14.19-7.45V52.38c0-5.12-3.68-9.26-8.22-9.26H24.79V306.9c0,8.72,5.88,15.79,13.14,15.79H185.71c10.09,0,19.41-7.11,18.46-20.67C204,302.77,201.15,310,200.81,310.48Z"/><path class="cls-14" d="M35.54,34.55A12.83,12.83,0,0,0,22.71,47.38v251c0,6.82,3.64,12.62,8.74,14.83a11.23,11.23,0,0,0,4.56,1H188.67c7.36,0,13.31-7.07,13.31-15.79V61.08c0-11.34,4.35-14.58,9.11-15.42,8.4-1.5,13.56,5.79,13.56,14.5V49.29c-.3-6-2.39-11-8.56-13.43a23.8,23.8,0,0,0-8.55-1.31Z"/><g class="cls-9"><path class="cls-15" d="M216.09,35.86a23.8,23.8,0,0,0-8.55-1.31h-172A12.83,12.83,0,0,0,22.71,47.38V99.45c.55-.07,179.27,0,179.27,0V61.08c0-11.34,4.35-14.58,9.11-15.42,8.4-1.5,13.56,5.79,13.56,14.5V49.29C224.35,43.29,222.26,38.29,216.09,35.86Z"/></g><g class="cls-11"><rect class="cls-7" x="193.49" y="209.19" width="1.55" height="5.64"/><rect class="cls-7" x="193.49" y="152.79" width="1.55" height="5.64"/><rect class="cls-7" x="193.49" y="175.35" width="1.55" height="5.64"/><rect class="cls-7" x="193.49" y="164.07" width="1.55" height="5.64"/><rect class="cls-7" x="193.49" y="186.63" width="1.55" height="5.64"/><path class="cls-7" d="M189.92,302.49l1.1,1a12.52,12.52,0,0,0,3.34-5.07l-1.48-.43A11.13,11.13,0,0,1,189.92,302.49Z"/><rect class="cls-7" x="193.49" y="286.98" width="1.55" height="6.96"/><rect class="cls-7" x="193.49" y="264.42" width="1.55" height="5.64"/><rect class="cls-7" x="193.49" y="220.47" width="1.55" height="38.3"/><rect class="cls-7" x="193.49" y="275.7" width="1.55" height="5.64"/><rect class="cls-7" x="193.49" y="197.91" width="1.55" height="5.64"/><rect class="cls-7" x="193.49" y="73.83" width="1.55" height="5.64"/><rect class="cls-7" x="193.49" y="85.11" width="1.55" height="5.64"/><rect class="cls-7" x="193.49" y="141.51" width="1.55" height="5.64"/><path class="cls-7" d="M200.56,43.88a15.43,15.43,0,0,0-2.24,2.19l1.23.86a14,14,0,0,1,2-2c.72-.57,1.51-1.13,2.35-1.67l-.9-1.15A30,30,0,0,0,200.56,43.88Z"/><path class="cls-7" d="M193.72,56.81l1.53.21a24.63,24.63,0,0,1,1.48-5.32l-1.45-.5A25.37,25.37,0,0,0,193.72,56.81Z"/><rect class="cls-7" x="193.49" y="62.55" width="1.55" height="5.64"/><rect class="cls-7" x="193.49" y="96.39" width="1.55" height="5.64"/><rect class="cls-7" x="193.49" y="118.95" width="1.55" height="5.64"/><rect class="cls-7" x="193.49" y="130.23" width="1.55" height="5.64"/><rect class="cls-7" x="193.49" y="107.67" width="1.55" height="5.64"/><path class="cls-7" d="M211.68,38.78h-2c-.36.14-.77.26-1.21.45l.67,1.27c1.64-.71,2.76-1.06,2.77-1.07Z"/><rect class="cls-7" x="179.04" y="305.52" width="5.07" height="1.41"/><rect class="cls-7" x="30.15" y="151.17" width="1.55" height="5.74"/><rect class="cls-7" x="30.15" y="139.69" width="1.55" height="5.74"/><rect class="cls-7" x="30.15" y="128.21" width="1.55" height="5.74"/><rect class="cls-7" x="30.15" y="162.65" width="1.55" height="5.74"/><rect class="cls-7" x="30.15" y="197.08" width="1.55" height="5.74"/><rect class="cls-7" x="30.15" y="174.12" width="1.55" height="5.74"/><rect class="cls-7" x="30.15" y="185.6" width="1.55" height="5.74"/><rect class="cls-7" x="30.15" y="59.35" width="1.55" height="5.74"/><rect class="cls-7" x="30.15" y="208.56" width="1.55" height="5.74"/><rect class="cls-7" x="30.15" y="47.87" width="1.55" height="5.74"/><rect class="cls-7" x="30.15" y="70.82" width="1.55" height="5.74"/><rect class="cls-7" x="30.15" y="93.78" width="1.55" height="5.74"/><rect class="cls-7" x="30.15" y="82.3" width="1.55" height="5.74"/><rect class="cls-7" x="30.15" y="105.26" width="1.55" height="5.74"/><rect class="cls-7" x="30.15" y="116.74" width="1.55" height="5.74"/><rect class="cls-7" x="53.14" y="305.52" width="6.29" height="1.41"/><rect class="cls-7" x="103.5" y="305.52" width="6.3" height="1.41"/><rect class="cls-7" x="116.09" y="305.52" width="6.3" height="1.41"/><rect class="cls-7" x="90.91" y="305.52" width="6.29" height="1.41"/><rect class="cls-7" x="153.86" y="305.52" width="6.29" height="1.41"/><rect class="cls-7" x="128.68" y="305.52" width="6.29" height="1.41"/><rect class="cls-7" x="78.32" y="305.52" width="6.29" height="1.41"/><rect class="cls-7" x="141.27" y="305.52" width="6.3" height="1.41"/><path class="cls-7" d="M40.74,305.29l-.34,1.38a13.76,13.76,0,0,0,2.65.26h3.79v-1.41H43.05A11.83,11.83,0,0,1,40.74,305.29Z"/><rect class="cls-7" x="30.15" y="275.66" width="1.55" height="5.74"/><rect class="cls-7" x="30.15" y="264.18" width="1.55" height="5.74"/><rect class="cls-7" x="30.15" y="287.14" width="1.55" height="5.74"/><rect class="cls-7" x="30.15" y="220.04" width="1.55" height="38.4"/><rect class="cls-7" x="166.45" y="305.52" width="6.29" height="1.41"/><path class="cls-7" d="M31,298.77a12.77,12.77,0,0,0,3.59,5.05l1.06-1a11.27,11.27,0,0,1-3.18-4.49Z"/><rect class="cls-7" x="65.73" y="305.52" width="6.29" height="1.41"/><rect class="cls-7" x="30.15" y="39.29" width="1.55" height="2.83"/></g><path class="cls-7" d="M219.07,47.32a10.27,10.27,0,0,0-8-1.65c-4.76.85-9.11,4.08-9.11,15.43V298.35c0,8.71-6,15.79-13.31,15.79l-4.13,0c1.24.14,4.14.22,5.37.3a26.91,26.91,0,0,0,7.5-1.07l.05,0a11.88,11.88,0,0,0,3.25-2c2.2-2.81,3.58-3.38,3.58-7.51V63.4c0-11.34,4.35-14.58,9.11-15.42a10.57,10.57,0,0,1,6,.57A8.64,8.64,0,0,0,219.07,47.32Z"/><path class="cls-3" d="M187.81,338.15H23.27c-7.92,0-14.33-7-14.33-15.6V82.77c0-8.61,6.41-15.6,14.33-15.6H185a23,23,0,0,1,9,1.61c4.91,2.11,7.85,13.76,7.85,14l.25,239.78c0,8.62-6.42,15.6-14.35,15.6"/><path class="cls-16" d="M187.81,338.15H23.27C15.35,338.15,8.64,332.31,8,320l.9-237.19c0-8.61,6.41-15.6,14.33-15.6H185a22.37,22.37,0,0,1,8.23,1.7,15,15,0,0,1,8.67,13l.23,240.7c0,8.62-6.42,15.6-14.35,15.6"/><path class="cls-17" d="M196.37,79.94a10.23,10.23,0,0,0-8-1.65c-4.76.84-9.11,4.08-9.11,15.42V298.3c0,8.71-6,15.79-13.31,15.79H13.29a11.2,11.2,0,0,1-4.56-1c-.29-.13-.58-.27-.86-.42v5.08c0,8.19,6.28,14.82,14,14.82h161c7.75,0,14-6.63,14-14.82V83.29s0-.08,0-.11a.66.66,0,0,0,0-.14A8.88,8.88,0,0,0,196.37,79.94Z"/><path class="cls-18" d="M196.93,82.32a8.88,8.88,0,0,0-.56-3.1,10,10,0,0,0-2.08-1.13,9.42,9.42,0,0,1,.18,1.78V314.62c0,8.18-6.28,14.82-14,14.82h-161a13.47,13.47,0,0,1-8.38-3,13.73,13.73,0,0,0,10.84,5.41h161c7.75,0,14-6.63,14-14.82V82.57s0-.07,0-.11A.61.61,0,0,0,196.93,82.32Z"/><path class="cls-7" d="M178.1,310.44c-2.24,3.18-8.92,4.41-16.37,3.6,0,0,3.3-8.72,3.3-8.88s12.6-6.64,14.19-7.46V85c0-5.12-3.68-9.27-8.22-9.27H2.07V306.85c0,8.72,5.89,15.79,13.15,15.79H163c10.08,0,19.4-7.1,18.46-20.67C181.26,302.72,178.44,310,178.1,310.44Z"/><path class="cls-19" d="M12.83,67.17A12.82,12.82,0,0,0,0,80v218.3c0,6.81,3.64,12.62,8.73,14.82a11.29,11.29,0,0,0,4.57,1H166c7.35,0,13.31-7.08,13.31-15.79V93.7c0-11.34,4.35-14.58,9.11-15.43,8.39-1.49,13.56,5.79,13.56,14.5V81.91c-.31-6-2.4-11-8.57-13.43a23.58,23.58,0,0,0-8.55-1.31Z"/><g class="cls-9"><path class="cls-20" d="M193.37,68.48a23.58,23.58,0,0,0-8.55-1.31h-172A12.82,12.82,0,0,0,0,80v52.07c.55-.07,179.27,0,179.27,0V93.7c0-11.34,4.35-14.58,9.11-15.43,8.39-1.49,13.56,5.79,13.56,14.5V81.91C201.63,75.9,199.54,70.9,193.37,68.48Z"/></g><path class="cls-21" d="M117.76,212.88h11.48c4.28,0,7-3.12,8.31-10.09,1.19-6.7-.36-9.68-4.65-9.68H121.4l1.81-10.05c2-11.47,8.06-17.13,18-17.13h1.89c5.5,0,8.51-.89,8.94-3.45.34-1.72-.16-4.09-.71-6.7a23,23,0,0,0-2.08-6.37c-1.34-2.31-4.39-3.43-9.19-3.43-11.91,0-21.7,3.26-29.42,9.87S98,171.25,95.87,183.24L94,193.11H69.88c-.38,0-25.34,2.76-25.34,2.76l23,3.46.93,3.34-14.06,1.17L69.16,206l.58,2.71-44,2.43s47.55,1.79,47.93,1.79H90.35L86,237.07h27.43Z"/><g class="cls-22"><g class="cls-23"><g class="cls-24"><path class="cls-25" d="M140,146c-12.24,0-21.84,3.38-29.38,9.86C103,162.45,98.09,171,95.94,183L94,193.11H70l-19,2,44.87.3.19-1.6,1.84-10.45c2.11-11.71,7-20.42,14.43-26.84,7.3-6.27,16.08-9.1,28-9.1,4.59,0,7.68-.14,8.87,1.95,0,0-1.43-3.57-9.18-3.43M86,237.07h1.82l4.35-24.23-1.85,0Zm47.28-44H121.39l-.47,2.46h16.41a4.19,4.19,0,0,0-4-2.46"/></g></g></g><g class="cls-11"><rect class="cls-7" x="170.77" y="241.81" width="1.55" height="5.64"/><rect class="cls-7" x="170.77" y="185.41" width="1.55" height="5.64"/><rect class="cls-7" x="170.77" y="207.96" width="1.55" height="5.64"/><rect class="cls-7" x="170.77" y="196.69" width="1.55" height="5.64"/><rect class="cls-7" x="170.77" y="219.25" width="1.55" height="5.64"/><path class="cls-7" d="M167.2,302.44l1.11,1a12.66,12.66,0,0,0,3.34-5.08l-1.48-.43A11.25,11.25,0,0,1,167.2,302.44Z"/><rect class="cls-7" x="170.77" y="286.93" width="1.55" height="6.96"/><rect class="cls-7" x="170.77" y="264.37" width="1.55" height="5.64"/><rect class="cls-7" x="170.77" y="253.09" width="1.55" height="5.64"/><rect class="cls-7" x="170.77" y="275.65" width="1.55" height="5.64"/><rect class="cls-7" x="170.77" y="230.53" width="1.55" height="5.64"/><rect class="cls-7" x="170.77" y="106.44" width="1.55" height="5.64"/><rect class="cls-7" x="170.77" y="117.72" width="1.55" height="5.64"/><rect class="cls-7" x="170.77" y="174.13" width="1.55" height="5.64"/><path class="cls-7" d="M177.85,76.5a15.49,15.49,0,0,0-2.25,2.19l1.24.86a14,14,0,0,1,2-2c.73-.57,1.52-1.13,2.35-1.67l-.89-1.15A30,30,0,0,0,177.85,76.5Z"/><path class="cls-7" d="M171,89.42l1.53.21A25.06,25.06,0,0,1,174,84.31l-1.45-.5A26.21,26.21,0,0,0,171,89.42Z"/><rect class="cls-7" x="170.77" y="95.16" width="1.55" height="5.64"/><rect class="cls-7" x="170.77" y="129.01" width="1.55" height="5.64"/><rect class="cls-7" x="170.77" y="151.56" width="1.55" height="5.64"/><rect class="cls-7" x="170.77" y="162.85" width="1.55" height="5.64"/><rect class="cls-7" x="170.77" y="140.29" width="1.55" height="5.64"/><path class="cls-7" d="M189,71.4h-2c-.35.14-.77.25-1.21.45l.67,1.27a27.85,27.85,0,0,1,2.77-1.07Z"/><rect class="cls-7" x="156.32" y="305.47" width="5.07" height="1.41"/><rect class="cls-7" x="7.44" y="183.79" width="1.55" height="5.74"/><rect class="cls-7" x="7.44" y="172.31" width="1.55" height="5.74"/><rect class="cls-7" x="7.44" y="160.83" width="1.55" height="5.74"/><rect class="cls-7" x="7.44" y="195.26" width="1.55" height="5.74"/><rect class="cls-7" x="7.44" y="229.7" width="1.55" height="5.74"/><rect class="cls-7" x="7.44" y="206.74" width="1.55" height="5.74"/><rect class="cls-7" x="7.44" y="218.22" width="1.55" height="5.74"/><rect class="cls-7" x="7.44" y="91.96" width="1.55" height="5.74"/><rect class="cls-7" x="7.44" y="241.17" width="1.55" height="5.74"/><rect class="cls-7" x="7.44" y="80.48" width="1.55" height="5.74"/><rect class="cls-7" x="7.44" y="103.44" width="1.55" height="5.74"/><rect class="cls-7" x="7.44" y="126.4" width="1.55" height="5.74"/><rect class="cls-7" x="7.44" y="114.92" width="1.55" height="5.74"/><rect class="cls-7" x="7.44" y="137.87" width="1.55" height="5.74"/><rect class="cls-7" x="7.44" y="149.35" width="1.55" height="5.74"/><rect class="cls-7" x="30.42" y="305.47" width="6.29" height="1.41"/><rect class="cls-7" x="80.78" y="305.47" width="6.3" height="1.41"/><rect class="cls-7" x="93.37" y="305.47" width="6.3" height="1.41"/><rect class="cls-7" x="68.19" y="305.47" width="6.29" height="1.41"/><rect class="cls-7" x="131.14" y="305.47" width="6.29" height="1.41"/><rect class="cls-7" x="105.96" y="305.47" width="6.29" height="1.41"/><rect class="cls-7" x="55.6" y="305.47" width="6.29" height="1.41"/><rect class="cls-7" x="118.55" y="305.47" width="6.3" height="1.41"/><path class="cls-7" d="M18,305.24l-.34,1.38a13.84,13.84,0,0,0,2.65.26h3.8v-1.41h-3.8A12,12,0,0,1,18,305.24Z"/><rect class="cls-7" x="7.44" y="275.61" width="1.55" height="5.74"/><rect class="cls-7" x="7.44" y="264.13" width="1.55" height="5.74"/><rect class="cls-7" x="7.44" y="287.09" width="1.55" height="5.74"/><rect class="cls-7" x="7.44" y="252.65" width="1.55" height="5.74"/><rect class="cls-7" x="143.73" y="305.47" width="6.29" height="1.41"/><path class="cls-7" d="M8.25,298.72a12.44,12.44,0,0,0,3.59,5l1.06-1a11.2,11.2,0,0,1-3.18-4.49Z"/><rect class="cls-7" x="43.01" y="305.47" width="6.29" height="1.41"/><rect class="cls-7" x="7.44" y="71.9" width="1.55" height="2.83"/></g><path class="cls-7" d="M196.36,79.94a10.23,10.23,0,0,0-8-1.65c-4.76.84-9.11,4.08-9.11,15.42V298.3c0,8.71-6,15.79-13.31,15.79l-4.13,0c1.23.14,4.13.22,5.37.3a26.43,26.43,0,0,0,7.49-1.07s0,0,.05,0a11.82,11.82,0,0,0,3.26-2c2.2-2.81,3.57-3.38,3.57-7.51V96c0-11.34,4.35-14.58,9.11-15.43a10.69,10.69,0,0,1,6.05.57A10.58,10.58,0,0,0,196.36,79.94Z"/><path class="cls-7" d="M122.81,258.87c0-10.18-6.63-18.43-14.82-18.43H88.55c-8.19,0-14.82,8.25-14.82,18.43V338a3.67,3.67,0,0,0,3.6,3.72h41.85a3.67,3.67,0,0,0,3.6-3.72V324h0Z"/><path class="cls-26" d="M120.67,260.61c0-10-6.64-18-14.82-18H86.4c-8.18,0-14.82,8.07-14.82,18V338a3.63,3.63,0,0,0,3.6,3.64H117a3.63,3.63,0,0,0,3.6-3.64V324.33h0Z"/><path class="cls-27" d="M120.67,260.61c0-10-6.64-18-14.82-18H86.4c-8.18,0-14.82,8.07-14.82,18V338a3.63,3.63,0,0,0,3.6,3.64H117a3.63,3.63,0,0,0,3.6-3.64V324.33h0Z"/><path class="cls-28" d="M107.93,271.41a12.23,12.23,0,0,0,.89-16.94,11.47,11.47,0,0,0-16.51-.94,12.26,12.26,0,0,0-.91,17,11.51,11.51,0,0,0,16.53.93"/><g class="cls-29"><rect class="cls-30" x="80.75" y="247.07" width="34.65" height="34.6" transform="translate(-151.17 132.52) rotate(-41.77)"/></g><g class="cls-31"><rect class="cls-32" x="80.85" y="247.56" width="34.09" height="34.03" transform="translate(-150.77 131.35) rotate(-41.52)"/></g><g class="cls-33"><rect class="cls-34" x="82.99" y="254.05" width="25.18" height="25.17" transform="translate(-153.11 131.06) rotate(-41.68)"/></g><path class="cls-35" d="M388.3,124.42a4.1,4.1,0,0,1,.89,3.33L380.27,187c-.07,1.09-.12,1.74-.12,2.13,0,2.06.41,3.45,1.17,4.14a5.76,5.76,0,0,0,2.62,1.11,4.1,4.1,0,0,1,2.35,1.22,4.24,4.24,0,0,1,1.13,3.25l-.51,5.47a3.72,3.72,0,0,1-1.32,2.65,13.21,13.21,0,0,1-2.56,1.31,22.12,22.12,0,0,1-6,1.23c-5.17,0-9.18-1.1-11.86-3.45s-4.14-5.74-4.14-10.13a22.31,22.31,0,0,1,.36-3.92c.09-.61,9.74-64.74,9.86-65.47a4.08,4.08,0,0,1,4.05-3.48l9.85,0a4.32,4.32,0,0,1,3.13,1.38m28.42,20.32h0l-9.72,0a4.09,4.09,0,0,0-4.06,3.47l-8.34,55.11a4.11,4.11,0,0,0,4.09,4.74l9.7-.08a4.06,4.06,0,0,0,4.05-3.49l8.32-55a4,4,0,0,0-.93-3.33,4,4,0,0,0-3.11-1.42m-3.36-5.44h0c4.08,0,7.12-1.09,9-3.2a11.32,11.32,0,0,0,2.91-8.1c0-2.61-.76-4.56-2.25-5.82s-3.7-1.91-6.66-1.9c-4.06,0-7.1,1.09-9.05,3.22a11.25,11.25,0,0,0-2.85,8.09,7.43,7.43,0,0,0,2.18,5.82c1.5,1.29,3.68,1.92,6.69,1.89m141.85,6.27h0a4.15,4.15,0,0,0-3.3-1.62l-10.23.06a4.11,4.11,0,0,0-3.92,3,43.39,43.39,0,0,1-4.88,10.24c-3.28,5.43-6.06,8.77-8.4,10.26l-.38.2c-.82.44-2.1,1.07-6.6,1.86l-.56.13,6.6-42.67a4.3,4.3,0,0,0-1-3.34,4.16,4.16,0,0,0-3.14-1.39l-9.81,0a4,4,0,0,0-4,3.49l-11.76,77a4,4,0,0,0,.94,3.29,4.09,4.09,0,0,0,3.14,1.44l9.78-.06A4.13,4.13,0,0,0,511.8,204l3.06-20.47,6.15,0,8.57,21.31a4.06,4.06,0,0,0,3.82,2.55l10.65-.06a4.14,4.14,0,0,0,4.1-4.15,4.31,4.31,0,0,0-.35-1.64l-9.86-24.91.24-.15a73.25,73.25,0,0,0,12.1-15.26,47.41,47.41,0,0,0,5.59-11.94,4.15,4.15,0,0,0-.66-3.64m155.85-2.52h0l-7.65,0,1.58-11a3.91,3.91,0,0,0-.92-3.29,4.09,4.09,0,0,0-3.17-1.44l-7.7,0a4.24,4.24,0,0,0-4,3l-3.66,12.78-4.23.05a4.12,4.12,0,0,0-4.11,3.46l-.9,5.91a4.09,4.09,0,0,0,1,3.31,4,4,0,0,0,3.13,1.46l2.57,0-4.42,29.33a32.45,32.45,0,0,0-.45,5.77c0,5.21,1.41,9,4.24,11.56s7.11,3.75,12.7,3.72a34.37,34.37,0,0,0,8.74-1.63c.46-.15,1.27-.46,1.36-.5a1.86,1.86,0,0,0,.49-.26,4,4,0,0,0,2.12-3.14l.67-6a4,4,0,0,0-1.28-3.44,5,5,0,0,0-.86-.66c-.26-.11-.41-.18-.63-.25a5.87,5.87,0,0,0-2-.12h-1.07a8.5,8.5,0,0,1-1.34,0,5.75,5.75,0,0,1-2.74-1c-.29-.32-1.34-1.26-1.38-4.78a13.14,13.14,0,0,1,.09-1.59l4-27,8.69-.06a4.19,4.19,0,0,0,4-3.34l1.13-5.93a4.41,4.41,0,0,0-.87-3.39,4.07,4.07,0,0,0-3.23-1.48m-226.85,6.81h0c3.47,4.63,5.28,10.72,5.3,18.1a49.64,49.64,0,0,1-1.94,14.2,47,47,0,0,1-6.13,13.15,29.15,29.15,0,0,1-11.95,10.05,41.64,41.64,0,0,1-18.26,3.89,83.18,83.18,0,0,1-10.25-.76l-.46-.05-.69,7.43a.61.61,0,0,0,0,.25l-2.07,13.13a4.13,4.13,0,0,1-4,3.49l-9.77.06a4.19,4.19,0,0,1-3.09-1.42,4.33,4.33,0,0,1-1-3.36l12.23-79.91a4,4,0,0,1,4-3.48l6.27,0a4.18,4.18,0,0,1,4.17,4.22l-.18,6.79.71-1a35.66,35.66,0,0,1,15.2-10.33,23.66,23.66,0,0,1,7.44-1.25c6.3,0,11.08,2.2,14.47,6.8M471.1,171.24h0a18.75,18.75,0,0,0-1.9-9c-1.31-2.47-3.14-3.67-5.49-3.67-2.6,0-5.63,1.71-8.94,5a60.68,60.68,0,0,0-8.83,11.59l-2.63,17.63.27.11a33.77,33.77,0,0,0,9.87,1.3c6,0,10.47-2.48,13.37-7.29a29,29,0,0,0,4.28-15.72m196.43-28.68h0c-4.22,1-8.34,3.66-11,5.62a84.09,84.09,0,0,0-7.63,7.26l-.74.8.41-8.56a4.4,4.4,0,0,0-1.18-3,4.09,4.09,0,0,0-3-1.27l-6.38.05a4,4,0,0,0-4,3.46l-8.37,55.13a4.07,4.07,0,0,0,1,3.28,4,4,0,0,0,3.13,1.42l9.81,0a4.09,4.09,0,0,0,4-3.5L648,173.84a37.06,37.06,0,0,1,10-9.44,24.81,24.81,0,0,1,9.35-3.68,4.12,4.12,0,0,0,3.37-3.31l1.79-10.13a4,4,0,0,0-1.2-3.73,4.09,4.09,0,0,0-3.79-1m-45,7h0l-8.1,53.84a4.09,4.09,0,0,1-4.08,3.49l-6.3.06a4.12,4.12,0,0,1-2.94-1.22,4.3,4.3,0,0,1-1.19-3l.23-6.68-.77.83a39.89,39.89,0,0,1-5.16,4.89A40.63,40.63,0,0,1,585,207a24,24,0,0,1-8.2,1.43c-6.38,0-11-2.16-14.54-6.75S557,191,556.93,183.52a57.28,57.28,0,0,1,1.11-11.3,41,41,0,0,1,4-11,36.64,36.64,0,0,1,7.11-9.6,32,32,0,0,1,11-6.68,44.24,44.24,0,0,1,15.3-2.62,124,124,0,0,1,23.82,2.53,4.06,4.06,0,0,1,3.3,4.66m-19.32,9.11h0l-.37-.11a33.1,33.1,0,0,0-9.85-1.28c-5.92,0-10.4,2.48-13.35,7.28a29.3,29.3,0,0,0-4.29,15.74,19.36,19.36,0,0,0,1.89,8.94c1.32,2.48,3.16,3.71,5.52,3.67,2.62,0,5.65-1.71,9-5a57.83,57.83,0,0,0,8.82-11.57ZM363.1,135.5h0l1.14-7.62a4.11,4.11,0,0,0-4.13-4.71l-46.17.27a4.16,4.16,0,0,0-4.1,3.49L298.16,203.8a4.08,4.08,0,0,0,4.07,4.75l10.63-.06a4.08,4.08,0,0,0,4.06-3.51l4.62-30.49,26.45-.16A4.06,4.06,0,0,0,352,170.9l1-6.67a4.14,4.14,0,0,0-1-3.36,4.09,4.09,0,0,0-3.12-1.41l-25,.13,2.91-20.41L359,139a4.11,4.11,0,0,0,4.07-3.51"/><path class="cls-21" d="M368.54,338.37h-23.4l-4-22.29H307.2l-10.81,22.29H273.14l49-97.89h28.52ZM338.77,300l-5.13-28.39-.83-11.49-4.43,11.49L314.26,300Z"/><path class="cls-21" d="M456.47,335.79l3.73-18c.65.74,3.55,1.64,8.73,2.7a72.54,72.54,0,0,0,14.54,1.59q14,0,14-6.93c0-1.66-1.18-3-3.53-4a44.75,44.75,0,0,0-8.58-2.56,83.46,83.46,0,0,1-10.11-2.77,19,19,0,0,1-8.58-5.95,16.09,16.09,0,0,1-3.54-10.74q0-12.45,9-19.1t27.15-6.65a87,87,0,0,1,11.62.76,69.75,69.75,0,0,1,8.66,1.59,16.32,16.32,0,0,1,3.8,1.39l-3.59,17.45q-2.37-1.53-8.59-2.64a69.76,69.76,0,0,0-12.05-1.1q-14.4,0-14.4,6.64c0,1.58,1.18,2.82,3.53,3.74a53,53,0,0,0,8.51,2.42,84.28,84.28,0,0,1,10.05,2.77,19.2,19.2,0,0,1,8.58,6,16.19,16.19,0,0,1,3.54,10.73q0,13.43-9.63,19.8t-26.38,6.37a102.19,102.19,0,0,1-12.87-.83c-4.35-.56-7.6-1.09-9.77-1.6a27.6,27.6,0,0,1-3.8-1"/><path class="cls-21" d="M436.73,240,433.2,264.2a90.49,90.49,0,0,0-11.76-1q-12,0-21.06,4.36a34.23,34.23,0,0,0-13.84,11.56,53.79,53.79,0,0,0-7.13,15,57.47,57.47,0,0,0-2.29,16.27q0,12.87,6,20.91t16.89,8q16.06,0,26.31-17l-.56,15.51h16.9L458.16,240Zm-9.9,62.32a64.27,64.27,0,0,1-10,13q-5.61,5.55-9.9,5.54-3.74,0-5.81-3.94a21.37,21.37,0,0,1-2.07-10,32.94,32.94,0,0,1,4.91-17.66q4.9-7.95,14.89-8a36.8,36.8,0,0,1,11.07,1.53Z"/></g></g></svg>