<svg id="Layer_1" data-name="Layer 1" xmlns="http://www.w3.org/2000/svg" viewBox="0 0 790 593"><defs><style>.cls-2{fill:#7eabf6}.cls-3{fill:#2874f0}.cls-4{fill:#d4e3fc}.cls-5{fill:#ffeb72}.cls-6{fill:#fafafb}.cls-7{fill:#fff1ba}</style></defs><path d="M657.57 408.2V249.32a144.1 144.1 0 00-144.1-144.11H419a35.06 35.06 0 01-35.06-35 42.07 42.07 0 00-42.06-42.07H171.56a42.08 42.08 0 00-42.07 42.07v170.22a42.07 42.07 0 0042.07 42.06 38.92 38.92 0 0138.92 38.92v86.79a144.1 144.1 0 00144.11 144.1h158.88c83.1.53 144.1-61.04 144.1-144.1z" fill="#eef4fd"/><path class="cls-2" d="M681.48 171.35h-45.85s-2.88 15 13.27 14.42H664a8.69 8.69 0 016.27 6.1c1.43 5.15 4 6 8.64 5.72h2.65l-.08-26.24z"/><path class="cls-3" d="M677.42 198.14c-3.86 0-6.29-1.23-7.65-6.13a8.25 8.25 0 00-5.88-5.75h-15c-5 .18-8.84-1.13-11.22-3.9-3.77-4.41-2.59-10.84-2.54-11.11l.08-.41h46.29c.48 0 .48.05.49 4.6v22.64h-3.15c-.46.05-.95.06-1.42.06zM664 185.27a9.08 9.08 0 016.75 6.47c1.36 4.9 3.71 5.63 8.13 5.35H681v-25.24h-44.94c-.18 1.45-.56 6.43 2.39 9.87 2.16 2.53 5.67 3.72 10.43 3.55z"/><path class="cls-4" d="M655.92 233.32h-12.29s-9.08 3.74-9.08 13.35v17.1l-4.28-2.14-14.42 15L634 292.08v39.53h-29.37s-20.3 4.81-20.3 25.11v103.64H563.5s-20.31 6.95-20.31 26.18h21.91s2.67-18.7 24.57-21.37h17.63v-64.64s-2.14-35.26 37.93-49.68l19.77-2.68s14.42-1.6 18.16-6.94V291L681 242.93a15.23 15.23 0 01-13.35 5.88s-11.73.53-11.73-15.49z"/><path class="cls-3" d="M565.1 487h-22.4v-.5c0-19.37 20.43-26.58 20.63-26.65h20.5V356.72c0-20.46 20.48-25.54 20.69-25.59h28.99v-38.8l-18.39-15.69 15-15.6 3.88 1.94v-16.31c0-9.83 9.29-13.78 9.39-13.82H656.37v.5c0 5.44 1.36 9.5 4.05 12.08a10.66 10.66 0 007.18 2.91 14.8 14.8 0 0013-5.65l.85-1.28 2.2 49.61v50.4l-.09.13c-3.82 5.46-17.92 7.09-18.52 7.15l-19.7 2.66c-39.18 14.14-37.57 48.82-37.55 49.17v65.17h-18.12c-11 1.35-17 7-20.06 11.43a25.31 25.31 0 00-4 9.51l-.06.43zm-21.4-1h21c.59-2.85 4.77-18.91 24.93-21.37h17.17v-64.1c0-.33-1.69-35.77 38.26-50.15h.1l19.77-2.67c.15 0 14-1.62 17.73-6.61V291l-2.08-46.74a15.83 15.83 0 01-12.94 5 11.57 11.57 0 01-7.85-3.17c-2.82-2.7-4.29-6.84-4.37-12.32h-11.69c-.91.41-8.68 4.19-8.68 12.85v17.91l-4.67-2.34-13.8 14.31 17.93 15.3v40.26h-29.82c-1.15.3-19.86 5.46-19.86 24.61v104.19h-21.25c-1.33.49-19.58 7.49-19.88 25.14z"/><rect class="cls-4" x="258.7" y="151.53" width="298.88" height="118.05" rx="22.3"/><path class="cls-3" d="M535.28 270.58H281a23.32 23.32 0 01-23.3-23.3v-73.44a23.33 23.33 0 0123.3-23.31h254.28a23.33 23.33 0 0123.3 23.31v73.44a23.32 23.32 0 01-23.3 23.3zM281 152.53a21.33 21.33 0 00-21.3 21.31v73.44a21.32 21.32 0 0021.3 21.3h254.28a21.33 21.33 0 0021.3-21.3v-73.44a21.33 21.33 0 00-21.3-21.31zM669.61 250.35h-.73a13.1 13.1 0 01-13.08-13.08v-11.89h2v11.89a11.09 11.09 0 0011.08 11.08h.73a11.09 11.09 0 0011.08-11.08h2a13.1 13.1 0 01-13.08 13.08z"/><path class="cls-4" d="M165.07 326.26h-23.76v-36.77s6.23-11.93 13.76-14 24.54-1.3 24.54-1.3-12.9 5.36-13.49 14.45-1.05 37.62-1.05 37.62z"/><path class="cls-3" d="M165.56 326.76h-24.75v-37.39l.06-.11c.26-.49 6.42-12.15 14.07-14.28s24-1.36 24.7-1.32l2.22.1-2.06.86c-.12.05-12.62 5.35-13.18 14-.58 9-1.05 37.33-1.05 37.62zm-23.75-1h22.77c.06-3.83.5-28.83 1-37.18.47-7.24 8.25-12.1 11.92-14-4.74-.13-16.51-.26-22.33 1.36-6.87 1.92-12.76 12.5-13.4 13.68z"/><path class="cls-2" d="M219.68 187.81l-6.75-8.76c-1.24-3.09-5.83-12.83-8.92-11.59l-8.88-.4c-3.87 1.56-17.62-.81-19.18-4.68l-7.59-13.3 23.64-9.57a7.32 7.32 0 019.54 4.05l2.42 6a7.34 7.34 0 009.55 4l1.43-.41c3.75-1.52 7.28 2.39 8.8 6.14l4.07 9.74c1.52 3.75 5.17 4.37 8.93 2.85l1-.31c2.73-1.1 6.7 4.2 8 6.83v10.8s.71 29.05.36 30.25-10.7-19.85-15.56-23.85a123.31 123.31 0 00-10.86-7.79"/><path class="cls-3" d="M197.89 258.92h-31.78a4 4 0 01-4-4 1.94 1.94 0 00-1.94-1.94H143.8v-2h16.42a4 4 0 013.94 3.94 2 2 0 002 2h29.78v-58.83a12.56 12.56 0 0112.54-12.55A32.51 32.51 0 01237 202.43l8.79 15.08-1.73 1-8.8-15.09a30.53 30.53 0 00-26.78-15.88 10.56 10.56 0 00-10.54 10.55z"/><path class="cls-3" d="M196.17 245.09a15.28 15.28 0 110-30.56v2a13.28 13.28 0 100 26.56zM203.06 189l-1.38-3.41a5 5 0 00-6.55-2.78l-4.25 1.72a8.55 8.55 0 01-11.15-4.72l-12.67-31.31 24.58-9.95a8.32 8.32 0 0110.85 4.6l2.42 6a6.33 6.33 0 008.24 3.5 8.33 8.33 0 0110.85 4.6l4.14 10.22a6.33 6.33 0 008.24 3.49c2.76-1.12 6.35.7 8.3 3.24l.11-.06.61 1.17a1.42 1.42 0 01.08.18l-1.78.9-.07-.14c-1.2-2.23-4.43-4.27-6.5-3.44a8.34 8.34 0 01-10.85-4.59L222.15 158a6.34 6.34 0 00-8.25-3.5 8.32 8.32 0 01-10.84-4.6l-2.42-6a6.33 6.33 0 00-8.25-3.5l-22.73 9.2 11.92 29.46a6.56 6.56 0 008.55 3.62l4.25-1.72a7 7 0 019.15 3.88l1.38 3.41z"/><path class="cls-3" d="M232.92 194c-4.18 0-9.82-1.33-15.32-6.78a33.82 33.82 0 01-7.06-10.88c-2.76-6-4.43-9.6-15.29-8.32-18.41 2.18-24.88-11.35-24.94-11.49l1.82-.84c.23.51 6 12.35 22.88 10.34 12.31-1.45 14.53 3.37 17.34 9.47a32.27 32.27 0 006.66 10.3c9.65 9.56 19.3 5.37 19.7 5.19l.83 1.82a17.74 17.74 0 01-6.62 1.19zM185.39 270.23h-64.84a9.55 9.55 0 01-9.55-9.53v-63.38a4.92 4.92 0 014.92-4.91h1v65.46a3.26 3.26 0 003.25 3.25h58.52a6.69 6.69 0 016.68 6.69zm-70.45-75.65a2.93 2.93 0 00-1.92 2.74v63.38a7.54 7.54 0 007.53 7.53h62.84v-.42a4.69 4.69 0 00-4.68-4.69h-58.52a5.25 5.25 0 01-5.25-5.25zM215.98 214.14h2v60.49h-2zM165.07 327.26h-24.76V294a20.38 20.38 0 0120.36-20.35h23.11v2h-23.11A18.38 18.38 0 00142.31 294v31.27h22.76z"/><path class="cls-3" d="M191.38 477.72h-4.19V477c-3.86-1.24-8-3.91-8-7.22V303c0-8.55 9-15.67 17.9-17.46v-.43h40.68a4.72 4.72 0 000-9.44h-54a17.72 17.72 0 00-17.71 17.71v83.73c0 .31.67 9.46-5 15.6-3.25 3.52-7.88 5.3-13.77 5.3H99.23v-2h48.06c5.3 0 9.44-1.56 12.29-4.64 5.09-5.5 4.5-14.1 4.49-14.19v-83.8a19.73 19.73 0 0119.71-19.71h54a6.72 6.72 0 010 13.44h-36.5c-9 0-20.08 7.33-20.08 15.89v166.74c0 2.46 4.47 4.94 8.07 5.73 3.61-.79 8.08-3.27 8.08-5.73v-91.32c-.1-.85-.86-9 3.23-13.56a9.45 9.45 0 017.4-3.09h11.42a9.3 9.3 0 017 1.79c2.07 1.73 3.12 4.5 3.12 8.24l-.7 17.26h368.89v2h-371l.79-19.3c0-3.07-.81-5.32-2.39-6.66a7.39 7.39 0 00-5.47-1.35H208a7.49 7.49 0 00-5.9 2.42c-3.64 4.09-2.75 12-2.74 12.06v91.49c0 3.31-4.12 6-8 7.22z"/><path class="cls-3" d="M557 352.74H259.8a16.16 16.16 0 01-16.14-16.14V153.25a16.16 16.16 0 0116.14-16.14H557a16.16 16.16 0 0116.15 16.14V336.6A16.16 16.16 0 01557 352.74zM259.8 139.11a14.16 14.16 0 00-14.14 14.14V336.6a14.16 14.16 0 0014.14 14.14H557a14.16 14.16 0 0014.1-14.14V153.25a14.17 14.17 0 00-14.1-14.14z"/><circle class="cls-5" cx="409.25" cy="207.51" r="30.65" transform="rotate(-22.5 409.252 207.515)"/><path class="cls-3" d="M409.25 239.16a31.65 31.65 0 1131.64-31.65 31.69 31.69 0 01-31.64 31.65zm0-61.3a29.65 29.65 0 1029.64 29.65 29.68 29.68 0 00-29.64-29.65z"/><path class="cls-2" d="M404.74 222l16.45-11.51a3.58 3.58 0 000-5.86l-16.45-11.51a3.58 3.58 0 00-5.63 2.93v23a3.58 3.58 0 005.63 2.95z"/><path class="cls-3" d="M402.69 223.6a4.59 4.59 0 01-4.58-4.58V196a4.58 4.58 0 017.21-3.75l16.44 11.51a4.58 4.58 0 010 7.5l-16.44 11.51a4.6 4.6 0 01-2.63.83zm0-30.18a2.58 2.58 0 00-2.59 2.58v23a2.58 2.58 0 004.06 2.11l16.44-11.51a2.57 2.57 0 000-4.22l-16.44-11.51a2.52 2.52 0 00-1.46-.45zM615.1 399.8h-405a5 5 0 01-4.72-3.61 5.51 5.51 0 012-6.21l45.94-32.37h315.06l.24.15 49.25 31.16a6 6 0 012.43 6.79 5.39 5.39 0 01-5.2 4.09zm-361.16-40.19l-45.43 32a3.48 3.48 0 00-1.22 4 3 3 0 002.81 2.22h405a3.44 3.44 0 003.28-2.65 4 4 0 00-1.58-4.54l-49-31z"/><rect class="cls-5" x="91.39" y="99.21" width="64.36" height="43.95" rx="9.83"/><path class="cls-3" d="M145.92 144.16h-44.69a10.85 10.85 0 01-10.84-10.83V109a10.84 10.84 0 0110.84-10.83h44.69A10.84 10.84 0 01156.75 109v24.29a10.84 10.84 0 01-10.83 10.87zm-44.69-43.95a8.85 8.85 0 00-8.84 8.79v24.29a8.85 8.85 0 008.84 8.83h44.69a8.84 8.84 0 008.83-8.83V109a8.84 8.84 0 00-8.83-8.83z"/><path class="cls-3" d="M123.61 122.22l-32.44-7.38.45-1.95 31.91 7.26 31.6-9.86.6 1.91-32.12 10.02z"/><rect class="cls-5" x="54.93" y="369.98" width="71.64" height="52.56" rx="13.5"/><path class="cls-3" d="M113.08 423.54H68.43A14.52 14.52 0 0153.93 409v-25.53A14.51 14.51 0 0168.43 369h44.65a14.51 14.51 0 0114.5 14.49V409a14.52 14.52 0 01-14.5 14.54zM68.43 371a12.51 12.51 0 00-12.5 12.49V409a12.52 12.52 0 0012.5 12.5h44.65a12.52 12.52 0 0012.5-12.5v-25.53a12.51 12.51 0 00-12.5-12.47z"/><path class="cls-3" d="M78 376.41h25.45c.14 0 .22.09.22.22v2.42a.19.19 0 01-.22.21H93.9v.22c1.37.74 2.42 2.24 3.18 4.52l.1.78h6.3c.14 0 .22.09.22.22v2.42a.19.19 0 01-.22.21h-6q0 4.06-5 7.91-4.41 2.54-6.27 2.53c0 .08-.07.11-.22.11l13.67 17.71v.21h-5.22s-5.34-6.85-15.85-20.56v-.1h1.64q8.72 0 10.47-6.27a9.54 9.54 0 00.11-1.21v-.33H78c-.15 0-.22-.07-.22-.21V385c0-.15.09-.22.22-.22h12.7a7.06 7.06 0 00-2.74-4 11.6 11.6 0 00-5.31-1.54H78c-.15 0-.22-.07-.22-.21v-2.42c.05-.13.12-.2.22-.2zM656.8 228.53h-58.9c-4.73 0-8.34-1.37-10.74-4.07-3.57-4-3.14-9.5-3.07-10.19V101.62c0-5.66-1.71-10.05-5.08-13.05C572.53 82.81 562 84 561.9 84h-55.66c-9.3 0-16.14 2.26-20.33 6.72a15.82 15.82 0 00-4.3 10.86v35.09h-2v-35a17.71 17.71 0 014.84-12.29C489 84.45 496.37 82 506.24 82h55.49c1-.11 11.66-1.09 18.61 5.1 3.81 3.39 5.75 8.29 5.75 14.54v112.8c0 .05-.55 5.19 2.58 8.7 2 2.25 5.12 3.39 9.24 3.39h58.9z"/><path class="cls-3" d="M695.6 487.46H542l.07-2.26c.42-14.3 12.36-25.49 27.18-25.49h13.92v-105c0-13.16 11.1-23.86 24.73-23.86h25.79v-87.14a11.53 11.53 0 0111.7-11.31h10.31v2h-10.35a9.52 9.52 0 00-9.7 9.31v89.18h-27.79c-12.53 0-22.73 9.81-22.73 21.86v107h-15.92c-13.73 0-24.8 10.34-25.18 23.55v.2H695.6a7.46 7.46 0 100-14.9h-46a10.54 10.54 0 01-9.22-5.2 9.9 9.9 0 01-.1-9.93l33.11-59.2a22.8 22.8 0 0119.95-11.49h9.06c11.12 0 19.47-3.14 24.84-9.33 8.56-9.89 6.58-24.34 6.56-24.48V245.24c0-17.74-18.44-18-19.23-18h-51.7c-10.26 0-18.6-8.06-18.6-18v-22.45a10.48 10.48 0 01-9.69-10.28v-5.41h47.11v2h-45.07v3.41a8.53 8.53 0 008.69 8.33h1v24.46c0 8.8 7.45 16 16.6 16h51.71c.21 0 21.22.27 21.22 20v105.42c.18 1.29 1.88 15.7-7 26-5.76 6.65-14.63 10-26.35 10h-9.06a20.76 20.76 0 00-18.2 10.47l-33.12 59.2a7.91 7.91 0 00.08 7.94 8.59 8.59 0 007.5 4.21h46a9.46 9.46 0 110 18.9z"/><path class="cls-3" d="M657.12 306.58a27.13 27.13 0 01-18.87-7.52l-24-23.12 17.08-16.45 20.43 19.68a8.37 8.37 0 0011.51 0l17.46-16.71v-55h2.67a4.3 4.3 0 100-8.6h-2.67V172.1h2v24.81h.67a6.3 6.3 0 110 12.6h-.67v53.82l-18.08 17.31a10.41 10.41 0 01-14.28 0l-19-18.35-14.19 13.68 22.49 21.68a25.44 25.44 0 0035 0L695 278l1.39 1.44L676 299.06a27.16 27.16 0 01-18.88 7.52z"/><path class="cls-3" d="M681.73 198.91h-5.22a7.16 7.16 0 01-7.26-7 5.16 5.16 0 00-5.27-5h-18.67v-2H664a7.16 7.16 0 017.27 7 5.16 5.16 0 005.26 5h5.22zM566.39 486.46h-2c0-12.12 10.22-22 22.78-22h19.2v-64c0-28.34 23-51.3 52.38-52.28 28.29-1 50.45-23 50.45-50.29V250.5c0-8.88-7.52-16.1-16.75-16.1h-10.72v-2h10.72c10.34 0 18.75 8.12 18.75 18.1v47.44c0 28.34-23 51.31-52.39 52.29-28.28.94-50.44 23-50.44 50.28v66h-21.2c-11.46-.04-20.78 8.93-20.78 19.95zM621.2 269.52c-.12-.19-3-4.8-12.65-4.26-3.19.18-5.72-.56-7.54-2.21-3.25-2.93-3.48-8-3.63-11.34 0-.49 0-.94-.07-1.34-.17-2.57-.17-2.57-2.42-2.43-.66 0-1.47.09-2.44.09-2.29 0-3.88-.49-4.72-1.46a2.35 2.35 0 01-.6-1.67 4.4 4.4 0 012.73-4.28l.16-.06h22.08c13.2 0 19.89 19.18 20.17 20l-1.89.65c-.06-.19-6.51-18.64-18.28-18.64h-21.71a2.52 2.52 0 00-1.26 2.39v.15c0 .19.65.94 3.33.94.9 0 1.65-.05 2.31-.09 3.07-.19 4.26.13 4.55 4.29 0 .42.05.88.07 1.39.14 3 .34 7.57 3 9.95 1.43 1.29 3.41 1.84 6.08 1.69 11-.63 14.36 5 14.5 5.26z"/><path class="cls-4" d="M299.73 528v-51.85h25.7v28.54L308 506.25s0 5.12 6.68 5.12h9.14l-14.6 8.07 6.3 9.72z"/><path class="cls-3" d="M316.51 529.73l-17.28-1.23v-52.85h26.7v29.5l-17.36 1.56c.18 1.16 1.12 4.16 6.13 4.16h11.09L310 519.61zm-16.28-2.16l14.35 1-6-9.33 13.37-7.39h-7.25a7.57 7.57 0 01-5.57-1.92 5.66 5.66 0 01-1.6-3.7v-.45l17.4-1.56v-27.57h-24.7z"/><path class="cls-2" d="M215.9 457.45c.49 0 .14-16.62 0-29.55 0-3.14 2.76-7.95 5.9-7.95 5.33 0 10.71-3.33 10.71-8.66v-16.87c0-13.45 12.82-23.66 26.27-23.66h17.67A26.28 26.28 0 01302.73 397v23.74a11.77 11.77 0 0011.77 11.77h.91a20.86 20.86 0 0120.86 20.86l.85 24.32-12.25-21.06c-5.53-9.81-13.88-16.76-25.14-16.76h-10.27s3.71-4 4.73-16.85 0-14.55 0-14.55-21.52-5.47-30-17.8c0 0-8.52-1.53-11.37 2.16s-3.29 3.78-3.29 10.16.48 27.94.75 28.89 2.54 5.91 2.54 5.91-14.72-1.91-20.06 2-10.12 6.72-10.12 17.2v14.23l-6.72-.85z"/><rect class="cls-4" x="171.02" y="471.11" width="108.84" height="77.3" rx="11.69"/><path class="cls-3" d="M268.17 548.92h-85.46a12.21 12.21 0 01-12.19-12.2V482.8a12.21 12.21 0 0112.19-12.19h85.46a12.21 12.21 0 0112.19 12.19v53.92a12.21 12.21 0 01-12.19 12.2zm-85.46-77.31a11.2 11.2 0 00-11.19 11.19v53.92a11.21 11.21 0 0011.19 11.2h85.46a11.21 11.21 0 0011.19-11.2V482.8a11.2 11.2 0 00-11.19-11.19zM359.92 570.74a32.39 32.39 0 01-4.34-.25H298a11.87 11.87 0 010-23.74h57a10.91 10.91 0 009.6-16.08l-41.06-76.18a25.82 25.82 0 00-22.77-13.59h-11.31v-2h11.23a27.84 27.84 0 0124.53 14.64l41.06 76.18a12.91 12.91 0 01-11.36 19H298a9.87 9.87 0 000 19.74h57.83c.16 0 15.49 2 26-7 6.57-5.71 9.9-14.58 9.9-26.37v-30.78c-.14-.84-.5-5.24 5.12-11.72l22.76-25.34a2.75 2.75 0 014.07 0l9.54 10.75a5.25 5.25 0 008 0l20-22.26a2.75 2.75 0 012.07-.94 2.75 2.75 0 012.07.94l10.26 11.43a5.25 5.25 0 008 0l25.86-28.81 6.73 7.49-.07-22.21h-19.68l6.26 7-19.87 22.74a3.15 3.15 0 01-2.34 1.1 3.08 3.08 0 01-2.33-1.07l-10-11.16a5.26 5.26 0 00-8-.05l-19.68 21.45a4.13 4.13 0 01-3.06 1.38 4.16 4.16 0 01-3.08-1.42l-8.26-9.2a5.25 5.25 0 00-8 0l-26.52 27.66a11.39 11.39 0 01-8.26 3.62h-12.75a13.45 13.45 0 01-10.45-2.48c-3.6-2.91-5.43-7.93-5.43-14.93V435.8c-.08-.81-2.12-21.72-21.91-21.72h-31.12v-2h31.12c21.64 0 23.88 23.4 23.9 23.63v32.58c0 6.35 1.57 10.85 4.67 13.36 3.84 3.11 8.85 2.09 8.9 2.08h13a9.41 9.41 0 006.81-3l26.5-27.64a7.26 7.26 0 0111 0l8.26 9.21a2.15 2.15 0 001.6.75 2.17 2.17 0 001.59-.73l19.68-21.45a7.3 7.3 0 015.43-2.46 7.33 7.33 0 015.46 2.53l10 11.16a1.14 1.14 0 00.84.4 1.15 1.15 0 00.85-.42l18.71-21.4-5.07-5.68a2.07 2.07 0 01-.33-2.21 1.86 1.86 0 011.7-1.13h21.88V446a2 2 0 01-1.24 1.86 1.83 1.83 0 01-2-.5l-5.4-6-24.37 27.14a7.24 7.24 0 01-11 0L463.88 457a.77.77 0 00-.58-.27.75.75 0 00-.58.28l-20 22.25a7.24 7.24 0 01-11 0l-9.63-10.72a.71.71 0 00-1.09 0l-22.75 25.33c-5.37 6.2-4.66 10.06-4.65 10.1v31.07c0 12.4-3.57 21.79-10.6 27.89-7.65 6.72-17.48 7.81-23.08 7.81z"/><path class="cls-5" d="M264.14 390.7h-5.41a9.21 9.21 0 00-9.22 9.21v26.25a22.34 22.34 0 0022.34 22.34 22.34 22.34 0 0022.34-22.34v-16.81s-22.68-6.47-30.05-18.65"/><path class="cls-3" d="M271.85 449.5a23.37 23.37 0 01-23.34-23.34v-26.25a10.22 10.22 0 0110.22-10.21h6l.3.48c7.08 11.71 29.24 18.14 29.47 18.21l.72.2v17.57a23.37 23.37 0 01-23.37 23.34zm-13.12-57.8a8.22 8.22 0 00-8.22 8.21v26.25a21.34 21.34 0 1042.68 0v-16.07c-4-1.22-22.54-7.41-29.6-18.39z"/><path class="cls-3" d="M337.11 476.15h-2v-11.84c1.71-26.8-10.27-29.21-19.89-31.14-1.15-.23-2.24-.45-3.27-.7-10.25-2.51-11.25-10.42-11.29-10.75v-26.6a23.85 23.85 0 00-23.82-23.82h-20.21a23.15 23.15 0 00-23.12 23.12v16.87a9.33 9.33 0 01-9.31 9.31 7.31 7.31 0 00-7.3 7.3v26.21a10.42 10.42 0 01-10.41 10.41c-5.55 0-8.74-3.39-8.74-9.29h2c0 4.84 2.27 7.29 6.74 7.29a8.42 8.42 0 008.41-8.41V427.9a9.31 9.31 0 019.3-9.3 7.32 7.32 0 007.31-7.31v-16.87a25.15 25.15 0 0125.12-25.12h20.21a25.86 25.86 0 0125.82 25.82v26.42c.09.66 1.21 6.89 9.76 9 1 .25 2.06.46 3.19.69 9.84 2 23.32 4.68 21.5 33.17z"/><path class="cls-3" d="M297.62 410.33c-35.39-7.57-39.07-28.41-39.21-29.29l2-.32c0 .21 3.71 20.39 37.65 27.65zM271.4 459.38a13.52 13.52 0 01-13.51-13.51v-1.53h2v1.53a11.51 11.51 0 0023 0v-1.53h2v1.53a13.52 13.52 0 01-13.49 13.51zM223.62 470.44h-2v-14.25A19.47 19.47 0 01241 436.75c12.11 0 12.1 0 12.48.36l-.7.71-.16 1c-.26 0-2.11-.06-11.61-.05a17.47 17.47 0 00-17.41 17.44z"/><path class="cls-3" d="M268.17 548.75h-85.46a12.71 12.71 0 01-12.71-12.7v-53.92a12.71 12.71 0 0112.69-12.69h85.46a12.71 12.71 0 0112.69 12.69v53.92a12.71 12.71 0 01-12.67 12.7zm-85.46-77.31A10.71 10.71 0 00172 482.13v53.92a10.71 10.71 0 0010.69 10.7h85.46a10.71 10.71 0 0010.69-10.7v-53.92a10.71 10.71 0 00-10.69-10.69z"/><circle class="cls-6" cx="226.74" cy="509.76" r="7.68"/><path class="cls-3" d="M226.74 518.44a8.68 8.68 0 118.68-8.68 8.69 8.69 0 01-8.68 8.68zm0-15.36a6.68 6.68 0 106.68 6.68 6.69 6.69 0 00-6.68-6.68zM262.26 426.36a9 9 0 119-9 9 9 0 01-9 9zm0-16a7 7 0 107 7 7 7 0 00-7-7.01zM284.6 426.36a9 9 0 119-9 9 9 0 01-9 9zm0-16a7 7 0 107 7 7 7 0 00-7-7.01z"/><path class="cls-3" d="M270.27 416.36h6.33v2h-6.33zM332.05 537.35h-14.56v-7.19h-18.76v-55.01h27.7v29.54h-2v-27.54h-23.7v51.01h18.76v7.19h12.56v2z"/><path class="cls-3" d="M314.69 529.68l-6.49-10.82 13-6.49h-6.5a7.68 7.68 0 01-7.67-7.68v-1h18.79l.28.26 25.31 22.89-1.34 1.48-25-22.63h-15.95a5.68 5.68 0 005.58 4.68h15l-18.7 9.32 5.37 9z"/><path class="cls-5" d="M398.46 66.76H519.3v43.38H398.46z"/><path class="cls-3" d="M519.3 111.14H398.46a1 1 0 01-1-1V66.76a1 1 0 011-1H519.3a1 1 0 011 1v43.38a1 1 0 01-1 1zm-119.84-2H518.3V67.76H399.46z"/><circle class="cls-4" cx="397.32" cy="67.9" r="8.16" transform="rotate(-45 397.314 67.897)"/><path class="cls-3" d="M397.32 77.05a9.16 9.16 0 119.16-9.15 9.16 9.16 0 01-9.16 9.15zm0-16.31a7.16 7.16 0 107.16 7.16 7.17 7.17 0 00-7.16-7.16z"/><circle class="cls-5" cx="419.43" cy="90.37" r="12.39"/><path class="cls-3" d="M419.43 103.77a13.4 13.4 0 1113.39-13.39 13.41 13.41 0 01-13.39 13.39zm0-24.79a11.4 11.4 0 1011.39 11.4A11.41 11.41 0 00419.43 79zM439 82.14h64.52v2H439zM438.74 94.42h48.95v2h-48.95z"/><path class="cls-5" d="M319.11 290.84l-9.81-5.46a7.46 7.46 0 00-.92-.51l-.31-.18a7 7 0 00-2.67-.53H304c-.2 3.86-3.05 6.93-6.54 6.93s-6.34-3.07-6.54-6.93h-.58a7.91 7.91 0 00-3.39.77l-.12.07a8.36 8.36 0 00-.88.5l-10.2 5.91 4.45 10.21 1.44-.84v25.47h31.63v-26l1.42.79z"/><path class="cls-3" d="M314.25 327.29h-33.63v-24.74l-.91.54-5.25-12.09 11-6.35a8.38 8.38 0 01.93-.54l1-.57.07.12a8.93 8.93 0 012.91-.49h1.53v.95c.17 3.35 2.6 6 5.54 6s5.37-2.63 5.54-6v-.95h2.35a8.1 8.1 0 012.13.29l.07-.16 1.29.67a6.59 6.59 0 011 .54l10.55 5.87-5.25 12-.89-.5zm-31.63-2h29.63v-26.73l1.94 1.08 3.64-8.37-9-5a7 7 0 00-.85-.47l-.29-.12a6.16 6.16 0 00-2.29-.46h-.5a7.46 7.46 0 01-14.88 0 6.81 6.81 0 00-2.64.66h-.05a8.73 8.73 0 00-.83.48l-9.5 5.51 3.65 8.36 2-1.15z"/><rect class="cls-5" x="353.58" y="282.7" width="25.83" height="43.64" rx="3.77"/><path class="cls-3" d="M375.63 327.34h-18.29a4.77 4.77 0 01-4.76-4.77v-36.1a4.77 4.77 0 014.76-4.77h18.29a4.78 4.78 0 014.77 4.77v36.1a4.78 4.78 0 01-4.77 4.77zm-18.29-43.64a2.77 2.77 0 00-2.76 2.77v36.1a2.77 2.77 0 002.76 2.77h18.29a2.77 2.77 0 002.77-2.77v-36.1a2.77 2.77 0 00-2.77-2.77z"/><path class="cls-3" d="M369.94 323.88H363a1 1 0 010-2h6.91a1 1 0 010 2z"/><rect class="cls-5" x="413.4" y="289.7" width="27.18" height="16.35" rx="3.18"/><path class="cls-3" d="M437.39 307.05h-20.81a4.18 4.18 0 01-4.18-4.18v-10a4.18 4.18 0 014.18-4.18h20.81a4.18 4.18 0 014.18 4.18v10a4.18 4.18 0 01-4.18 4.18zm-20.81-16.35a2.18 2.18 0 00-2.18 2.18v10a2.18 2.18 0 002.18 2.18h20.81a2.18 2.18 0 002.18-2.18v-10a2.18 2.18 0 00-2.18-2.18z"/><rect class="cls-5" x="443.42" y="289.7" width="27.18" height="16.35" rx="3.18"/><path class="cls-3" d="M467.42 307.05H446.6a4.18 4.18 0 01-4.18-4.18v-10a4.18 4.18 0 014.18-4.18h20.82a4.19 4.19 0 014.18 4.18v10a4.18 4.18 0 01-4.18 4.18zM446.6 290.7a2.19 2.19 0 00-2.18 2.18v10a2.19 2.19 0 002.18 2.18h20.82a2.19 2.19 0 002.18-2.18v-10a2.19 2.19 0 00-2.18-2.18z"/><path class="cls-5" d="M477.87 308.45a3 3 0 00-6 0v.27h-59.82v-.27a3 3 0 00-3-3 3 3 0 00-3 3v2.47a3 3 0 00.12.79v5.58a3.09 3.09 0 003.09 3.09h65.44a3.09 3.09 0 003.09-3.09v-5.48a1.23 1.23 0 000-.19 2.75 2.75 0 00.1-.7z"/><path class="cls-3" d="M474.7 321.38h-65.41a4.09 4.09 0 01-4.09-4.09v-5.49a3.53 3.53 0 01-.11-.88v-2.47a4 4 0 017.89-.73h58a4 4 0 017.89.73v2.47a4 4 0 01-.08.75v5.62a4.09 4.09 0 01-4.09 4.09zm-65.63-14.91a2 2 0 00-2 2v2.47a2.44 2.44 0 00.08.53v5.84a2.1 2.1 0 002.09 2.09h65.46a2.09 2.09 0 002.09-2.09v-5.91a1.61 1.61 0 00.07-.46v-2.47a2 2 0 00-4 0v1.27h-61.81v-1.27a2 2 0 00-1.98-2z"/><rect class="cls-5" x="500.83" y="288.19" width="43.86" height="28.45" rx="5.1"/><path class="cls-3" d="M539.6 317.64h-33.67a6.11 6.11 0 01-6.1-6.1v-18.26a6.1 6.1 0 016.1-6.09h33.67a6.09 6.09 0 016.09 6.09v18.26a6.1 6.1 0 01-6.09 6.1zm-33.67-28.45a4.1 4.1 0 00-4.1 4.09v18.26a4.11 4.11 0 004.1 4.1h33.67a4.1 4.1 0 004.09-4.1v-18.26a4.09 4.09 0 00-4.09-4.09z"/><path class="cls-7" d="M519.75 316.57h6.02v3.47h-6.02z"/><path class="cls-3" d="M526.77 321h-8v-5.47h8zm-6-2h4v-1.47h-4z"/><path class="cls-7" d="M516.51 320.51h12.5v1.39h-12.5z"/><path class="cls-3" d="M515.51 319.51h14.5v3.39h-14.5zM395.27 324.37a1.5 1.5 0 01-1.5-1.5v-35.66a1.5 1.5 0 013 0v35.66a1.5 1.5 0 01-1.5 1.5zM490.26 324.37a1.5 1.5 0 01-1.5-1.5v-35.66a1.5 1.5 0 013 0v35.66a1.5 1.5 0 01-1.5 1.5zM334.06 324.37a1.5 1.5 0 01-1.5-1.5v-35.66a1.5 1.5 0 013 0v35.66a1.5 1.5 0 01-1.5 1.5zM715.37 145.27h-77a8.27 8.27 0 01-8.27-8.83 8.42 8.42 0 018.51-7.73h7.52a4.71 4.71 0 003.35-1.39 4.62 4.62 0 001.36-3.29 28.87 28.87 0 0128.85-28.89h4.85a28.72 28.72 0 0122.49 10.79 10.18 10.18 0 008 3.71 18 18 0 0118 18 17.67 17.67 0 01-17.66 17.63zm-76.74-14.56a6.41 6.41 0 00-6.51 5.86 6.27 6.27 0 006.27 6.7h77A15.67 15.67 0 00731 127.62a16 16 0 00-16-16 12.15 12.15 0 01-9.54-4.46 26.74 26.74 0 00-20.93-10h-4.85A26.85 26.85 0 00652.86 124a6.71 6.71 0 01-6.71 6.68z"/><circle class="cls-3" cx="413.27" cy="90.37" r="2.42"/><circle class="cls-3" cx="423.93" cy="85.39" r="2.42"/><circle class="cls-3" cx="423.93" cy="95.35" r="2.42"/><path class="cls-3" d="M423.51 96.26l-10.66-5a1 1 0 010-1.81l10.66-5 .84 1.81-8.72 4.08 8.72 4.07zM371.51 138.18h-2v-9.41c0-3.7-1-6.43-3-8.11-3.15-2.66-7.82-1.9-7.87-1.9h-59.88v-2h59.64c.76-.12 5.74-.73 9.38 2.34 2.47 2.08 3.73 5.33 3.73 9.65z"/><rect class="cls-5" x="555.14" y="124.11" width="50.72" height="50.72" rx="14.8"/><path class="cls-3" d="M591.06 175.83H570A15.82 15.82 0 01554.14 160v-21.09a15.82 15.82 0 0115.86-15.8h21.11a15.82 15.82 0 0115.8 15.8V160a15.82 15.82 0 01-15.85 15.83zM570 125.11a13.82 13.82 0 00-13.81 13.8V160A13.83 13.83 0 00570 173.83h21.11A13.82 13.82 0 00604.86 160v-21.09a13.81 13.81 0 00-13.8-13.8z"/><path class="cls-7" d="M578.29 153.58l-11.99-10.81-5.71 5.71 11.4 11.4 5.68 5.68 5.12-5.12 31.22-31.22-5.09-6.27-30.63 30.63z"/><path class="cls-6" d="M577.4 154.04l-12-10.81-5.71 5.71 11.41 11.41 5.68 5.68 5.11-5.12 31.23-31.22-5.09-6.27-30.63 30.62z"/><path class="cls-3" d="M576.78 167.44l-18.5-18.5 7.09-7.09 12 10.82 30.74-30.75 6.35 7.84zm-15.67-18.5l15.67 15.67 35-35-3.78-4.7-30.51 30.51-12-10.81zM392.73 520.65v-2H636.5a60.31 60.31 0 0022.78-7.55c15-8.78 22.65-22.87 22.65-41.88V291h2v178.22c0 47.21-46.88 51.39-47.35 51.43z"/><rect class="cls-4" x="561.19" y="35.39" width="62.92" height="62.92" rx="13.29"/><path class="cls-3" d="M610.81 99.31h-36.33A14.31 14.31 0 01560.19 85V48.69a14.31 14.31 0 0114.29-14.3h36.33a14.32 14.32 0 0114.3 14.3V85a14.31 14.31 0 01-14.3 14.31zm-36.33-62.92a12.31 12.31 0 00-12.29 12.3V85a12.3 12.3 0 0012.29 12.29h36.33A12.31 12.31 0 00623.11 85V48.69a12.32 12.32 0 00-12.3-12.3z"/><circle class="cls-6" cx="589.52" cy="60.97" r="13.46"/><path class="cls-3" d="M589.54 75.42a14.44 14.44 0 118.94-3.1 14.44 14.44 0 01-8.94 3.1zm0-26.91a12.45 12.45 0 109.8 4.74 12.54 12.54 0 00-9.8-4.74z"/><path class="cls-3" d="M608.52 87.78a2.74 2.74 0 01-2.17-1l-11-13.88 1.65-1.28 11 13.88a.77.77 0 001.07.12.79.79 0 00.28-.51.73.73 0 00-.16-.55l-11-13.88 1.57-1.24 10.95 13.88a2.75 2.75 0 01-2.16 4.46z"/><path class="cls-4" d="M250.1 42.75l75.69 30.36v22.36l-76.18 15.99"/><path class="cls-3" d="M249.81 112.44l-.41-2 75.39-15.82V73.79l-75.06-30.11.75-1.86 75.68 30.36a1 1 0 01.63.93v22.36a1 1 0 01-.8 1z"/><path class="cls-4" transform="rotate(180 338.9 85.315)" d="M333.7 74.93h10.39v20.78H333.7z"/><path class="cls-3" d="M344.09 96.7H333.7a1 1 0 01-1-1V74.93a1 1 0 011-1h10.39a1 1 0 011 1V95.7a1 1 0 01-1 1zm-9.39-2h8.39V75.93h-8.39zM289 124.93h-17.46c-.07 0-6.9-.1-6.9-9.16v-7.71h2v7.71c0 7 4.71 7.16 4.91 7.16H289c8.19 0 8.73-5.42 8.75-5.65V101h2v16.34c0 .16-.63 7.59-10.75 7.59z"/><path class="cls-4" transform="rotate(180 240.92 77.72)" d="M231.51 39.02h18.82v77.4h-18.82z"/><path class="cls-3" d="M250.33 117.42h-18.82a1 1 0 01-1-1V39a1 1 0 011-1h18.82a1 1 0 011 1v77.4a1 1 0 01-1 1.02zm-17.82-2h16.82V40h-16.82z"/></svg>